<?xml version="1.0" encoding="UTF-8" standalone="no"?>
<!-- Generator: Adobe Illustrator 20.0.0, SVG Export Plug-In . SVG Version: 6.00 Build 0)  -->

<svg
   xmlns:dc="http://purl.org/dc/elements/1.1/"
   xmlns:cc="http://creativecommons.org/ns#"
   xmlns:rdf="http://www.w3.org/1999/02/22-rdf-syntax-ns#"
   xmlns:svg="http://www.w3.org/2000/svg"
   xmlns="http://www.w3.org/2000/svg"
   xmlns:sodipodi="http://sodipodi.sourceforge.net/DTD/sodipodi-0.dtd"
   xmlns:inkscape="http://www.inkscape.org/namespaces/inkscape"
   version="1.1"
   x="0px"
   y="0px"
   viewBox="0 0 16 16"
   xml:space="preserve"
   width="16"
   height="16"
   id="svg2"
   inkscape:version="0.91 r13725"
   sodipodi:docname="com.github.franklevel.poogie.svg"><metadata
     id="metadata12"><rdf:RDF><cc:Work
         rdf:about=""><dc:format>image/svg+xml</dc:format><dc:type
           rdf:resource="http://purl.org/dc/dcmitype/StillImage" /><dc:title /></cc:Work></rdf:RDF></metadata><defs
     id="defs10" /><sodipodi:namedview
     pagecolor="#ffffff"
     bordercolor="#666666"
     borderopacity="1"
     objecttolerance="10"
     gridtolerance="10"
     guidetolerance="10"
     inkscape:pageopacity="0"
     inkscape:pageshadow="2"
     inkscape:window-width="1360"
     inkscape:window-height="705"
     id="namedview8"
     showgrid="false"
     inkscape:zoom="9.8333333"
     inkscape:cx="-18.559322"
     inkscape:cy="12"
     inkscape:window-x="0"
     inkscape:window-y="30"
     inkscape:window-maximized="1"
     inkscape:current-layer="svg2" /><g
     id="g4140"
     transform="matrix(0.66718375,0,0,0.66718375,0.02915574,-0.01154247)"><path
       id="path4"
       d="m 11.947,2.016 c -5.509,0 -9.992,4.483 -9.992,9.992 0,5.509 4.483,9.992 9.992,9.992 5.509,0 9.992,-4.483 9.992,-9.992 0,-5.51 -4.483,-9.992 -9.992,-9.992 z m 0,17.976 c -4.402,0 -7.984,-3.582 -7.984,-7.984 0,-4.402 3.582,-7.984 7.984,-7.984 4.402,0 7.984,3.582 7.984,7.984 0,4.402 -3.582,7.984 -7.984,7.984 z"
       inkscape:connector-curvature="0" /><path
       id="path6"
       d="m 11.947,4.987 c -3.863,0 -7.005,3.142 -7.005,7.005 0,3.863 3.142,7.005 7.005,7.005 3.863,0 7.005,-3.142 7.005,-7.005 0,-3.863 -3.142,-7.005 -7.005,-7.005 z m 1.591,7.005 -0.796,0.796 0.796,0.796 0,2.387 -3.182,0 0,-3.978 0.796,-0.796 -0.796,-0.796 0,-2.387 3.182,0 0,3.978 z"
       inkscape:connector-curvature="0" /></g></svg>