<?xml version="1.0" encoding="iso-8859-1"?>
<!-- Generator: Adobe Illustrator 19.2.1, SVG Export Plug-In . SVG Version: 6.00 Build 0)  -->
<svg xmlns="http://www.w3.org/2000/svg" xmlns:xlink="http://www.w3.org/1999/xlink" version="1.1" id="Layer_1" x="0px" y="0px" viewBox="0 0 48 48" style="enable-background:new 0 0 48 48;" xml:space="preserve" width="96px" height="96px">
<g>
	<path style="fill:#ECEFF1;" d="M24,43.5C13.248,43.5,4.5,34.752,4.5,24C4.5,13.248,13.248,4.5,24,4.5S43.5,13.248,43.5,24   C43.5,34.752,34.752,43.5,24,43.5z"/>
	<path style="fill:#CFD8DC;" d="M24,5c10.477,0,19,8.523,19,19s-8.523,19-19,19S5,34.477,5,24S13.523,5,24,5 M24,4   C12.954,4,4,12.954,4,24s8.954,20,20,20s20-8.954,20-20S35.046,4,24,4L24,4z"/>
</g>
<g>
	<path style="fill:#1976D2;" d="M24,39.5c-8.547,0-15.5-6.953-15.5-15.5S15.453,8.5,24,8.5S39.5,15.453,39.5,24S32.547,39.5,24,39.5   z"/>
	<path style="fill:#1565C0;" d="M24,9c8.271,0,15,6.729,15,15s-6.729,15-15,15S9,32.271,9,24S15.729,9,24,9 M24,8   C15.163,8,8,15.163,8,24s7.163,16,16,16s16-7.163,16-16S32.837,8,24,8L24,8z"/>
</g>
<circle style="fill:#CFD8DC;" cx="24" cy="24" r="12"/>
<circle style="fill:#B0BEC5;" cx="24" cy="24" r="6"/>
<g id="keyhole_2_">
	<polygon style="fill:#607D8B;" points="21.591,32.591 21.591,23.484 23.255,21.82 21.591,20.155 21.591,15.409 26.409,15.409    26.409,24.516 24.745,26.181 26.409,27.845 26.409,32.591  "/>
	<path style="fill:#455A64;" d="M25.909,15.909v8.4l-1.164,1.164l-0.707,0.707l0.707,0.707l1.164,1.164v4.039h-3.818v-8.4   l1.164-1.164l0.707-0.707l-0.707-0.707l-1.164-1.164v-4.039H25.909 M26.909,14.909h-5.818v5.453l1.457,1.457l-1.457,1.457v9.814   h5.818v-5.453l-1.457-1.457l1.457-1.457V14.909L26.909,14.909z"/>
</g>
</svg>
