<?xml version="1.0" encoding="UTF-8" standalone="no"?>
<!-- Generator: Adobe Illustrator 19.2.1, SVG Export Plug-In . SVG Version: 6.00 Build 0)  -->

<svg
   xmlns:dc="http://purl.org/dc/elements/1.1/"
   xmlns:cc="http://creativecommons.org/ns#"
   xmlns:rdf="http://www.w3.org/1999/02/22-rdf-syntax-ns#"
   xmlns:svg="http://www.w3.org/2000/svg"
   xmlns="http://www.w3.org/2000/svg"
   xmlns:sodipodi="http://sodipodi.sourceforge.net/DTD/sodipodi-0.dtd"
   xmlns:inkscape="http://www.inkscape.org/namespaces/inkscape"
   version="1.1"
   id="Layer_1"
   x="0px"
   y="0px"
   viewBox="0 0 24 24"
   xml:space="preserve"
   width="64"
   height="64"
   inkscape:version="0.91 r13725"
   sodipodi:docname="com.github.franklevel.poogie.svg"><metadata
     id="metadata28"><rdf:RDF><cc:Work
         rdf:about=""><dc:format>image/svg+xml</dc:format><dc:type
           rdf:resource="http://purl.org/dc/dcmitype/StillImage" /><dc:title></dc:title></cc:Work></rdf:RDF></metadata><defs
     id="defs26" /><sodipodi:namedview
     pagecolor="#ffffff"
     bordercolor="#666666"
     borderopacity="1"
     objecttolerance="10"
     gridtolerance="10"
     guidetolerance="10"
     inkscape:pageopacity="0"
     inkscape:pageshadow="2"
     inkscape:window-width="1360"
     inkscape:window-height="705"
     id="namedview24"
     showgrid="false"
     inkscape:zoom="1.84375"
     inkscape:cx="-0.81355932"
     inkscape:cy="64"
     inkscape:window-x="0"
     inkscape:window-y="30"
     inkscape:window-maximized="1"
     inkscape:current-layer="Layer_1" /><g
     id="g4156"
     transform="scale(0.5,0.5)"><g
       id="g3"><path
         id="path5"
         d="M 24,43.5 C 13.248,43.5 4.5,34.752 4.5,24 4.5,13.248 13.248,4.5 24,4.5 34.752,4.5 43.5,13.248 43.5,24 43.5,34.752 34.752,43.5 24,43.5 Z"
         style="fill:#eceff1"
         inkscape:connector-curvature="0" /><path
         id="path7"
         d="M 24,5 C 34.477,5 43,13.523 43,24 43,34.477 34.477,43 24,43 13.523,43 5,34.477 5,24 5,13.523 13.523,5 24,5 M 24,4 C 12.954,4 4,12.954 4,24 4,35.046 12.954,44 24,44 35.046,44 44,35.046 44,24 44,12.954 35.046,4 24,4 l 0,0 z"
         style="fill:#cfd8dc"
         inkscape:connector-curvature="0" /></g><g
       id="g9"><path
         id="path11"
         d="M 24,39.5 C 15.453,39.5 8.5,32.547 8.5,24 8.5,15.453 15.453,8.5 24,8.5 c 8.547,0 15.5,6.953 15.5,15.5 0,8.547 -6.953,15.5 -15.5,15.5 z"
         style="fill:#1976d2"
         inkscape:connector-curvature="0" /><path
         id="path13"
         d="m 24,9 c 8.271,0 15,6.729 15,15 0,8.271 -6.729,15 -15,15 C 15.729,39 9,32.271 9,24 9,15.729 15.729,9 24,9 M 24,8 C 15.163,8 8,15.163 8,24 8,32.837 15.163,40 24,40 32.837,40 40,32.837 40,24 40,15.163 32.837,8 24,8 l 0,0 z"
         style="fill:#1565c0"
         inkscape:connector-curvature="0" /></g><circle
       id="circle15"
       r="12"
       cy="24"
       cx="24"
       style="fill:#cfd8dc" /><circle
       id="circle17"
       r="6"
       cy="24"
       cx="24"
       style="fill:#b0bec5" /><g
       id="keyhole_2_"><polygon
         id="polygon20"
         points="26.409,32.591 21.591,32.591 21.591,23.484 23.255,21.82 21.591,20.155 21.591,15.409 26.409,15.409 26.409,24.516 24.745,26.181 26.409,27.845 "
         style="fill:#607d8b" /><path
         id="path22"
         d="m 25.909,15.909 0,8.4 -1.164,1.164 -0.707,0.707 0.707,0.707 1.164,1.164 0,4.039 -3.818,0 0,-8.4 1.164,-1.164 0.707,-0.707 -0.707,-0.707 -1.164,-1.164 0,-4.039 3.818,0 m 1,-1 -5.818,0 0,5.453 1.457,1.457 -1.457,1.457 0,9.814 5.818,0 0,-5.453 -1.457,-1.457 1.457,-1.457 0,-9.814 0,0 z"
         style="fill:#455a64"
         inkscape:connector-curvature="0" /></g></g></svg>